<svg width="457" height="204" viewBox="0 0 457 204" fill="none" xmlns="http://www.w3.org/2000/svg">
<path fill-rule="evenodd" clip-rule="evenodd" d="M90.4087 1.85632C107.836 3.09831 125.596 4.11436 140.117 13.8023C155.002 23.7335 164.41 39.3307 171.291 55.8188C178.702 73.5795 185.213 92.5828 180.809 111.312C176.2 130.909 163.587 148.226 146.897 159.55C130.513 170.665 110.162 174.223 90.4087 172.644C71.7607 171.154 54.9386 162.426 40.1388 151.015C25.7208 139.899 14.2169 125.788 7.64806 108.837C0.781507 91.1168 -2.59261 71.8397 2.34844 53.4931C7.45478 34.5327 18.2835 16.2808 35.2551 6.32901C51.5537 -3.22816 71.5489 0.512221 90.4087 1.85632Z" fill="#E3E3E3"/>
<path fill-rule="evenodd" clip-rule="evenodd" d="M87.3815 24.5349C101.292 23.3137 115.174 28.3928 126.392 36.6933C137.538 44.9403 146.868 56.5911 149.161 70.2479C151.318 83.0929 142.174 94.356 138.156 106.747C134.131 119.159 135.928 134.789 125.627 142.82C115.285 150.884 100.494 146.874 87.3815 146.334C74.8799 145.82 62.2092 145.985 51.36 139.764C39.673 133.063 27.9717 123.638 24.9398 110.531C21.9729 97.7046 30.9951 85.7933 36.0648 73.6408C40.6583 62.6298 44.4311 51.3859 53.0574 43.1312C62.6901 33.9135 74.0878 25.702 87.3815 24.5349Z" fill="#F0F0F0"/>
<path fill-rule="evenodd" clip-rule="evenodd" d="M93.5 122.499C85.0374 122.569 76.5 122.5 69.5 119.5C67.8115 117.884 66.3704 117.593 65 115.662C62.6803 112.394 60.8479 108.725 59.6094 104.827C55.2659 91.1567 59.847 76.0742 71.7473 67.8431C83.112 59.9824 98.1739 62.2949 109.337 70.4316C120.173 78.33 125.597 91.5781 121.783 104.314C117.615 118.229 108.227 122.378 93.5 122.499Z" fill="white"/>
<ellipse cx="90" cy="188" rx="25" ry="8" fill="#E3E3E3"/>
<ellipse cx="90.5" cy="188" rx="17.5" ry="4" fill="#F0F0F0"/>
<circle cx="79.567" cy="130.567" r="3.56701" fill="black"/>
<path fill-rule="evenodd" clip-rule="evenodd" d="M90.0001 101.5C92.0288 101.5 94.0098 101.586 95.919 101.75C100.953 102.182 105.488 103.157 109.082 104.527C110.319 104.999 111.464 105.524 112.488 106.103C113.513 106.681 114.417 107.311 115.174 107.993C116.686 109.357 117.731 111.046 117.731 113V119C117.731 120.245 117.307 121.383 116.608 122.397C116.549 122.481 116.489 122.565 116.427 122.648C116.242 122.896 116.039 123.137 115.823 123.369V124.178C115.823 125.458 116.358 126.71 117.267 128.061C117.879 128.97 118.558 129.792 119.274 130.657C119.669 131.134 120.074 131.624 120.485 132.15C121.747 133.762 122.5 135.795 122.5 138V188C122.5 192.821 118.244 196.69 112.538 199.267C106.693 201.906 98.7229 203.5 90 203.5C81.2771 203.5 73.3074 201.906 67.4623 199.267C61.7561 196.69 57.5 192.821 57.5 188V138C57.5 135.795 58.2529 133.762 59.5147 132.15C59.9259 131.624 60.3314 131.134 60.7258 130.657C61.4418 129.792 62.1215 128.97 62.7328 128.061C63.6416 126.71 64.1769 125.458 64.1769 124.178V123.369C63.0237 122.13 62.2692 120.66 62.2692 119V113C62.2692 111.046 63.3136 109.357 64.8263 107.993C66.3393 106.63 68.4443 105.47 70.9177 104.527C72.0223 104.106 73.2158 103.722 74.4854 103.38C76.7766 102.763 79.3156 102.281 82.027 101.96C84.5552 101.66 87.2333 101.5 90.0001 101.5C90 101.5 90.0001 101.5 90.0001 101.5ZM90 104.5C82.9563 104.5 76.6471 105.601 72.1537 107.329C69.902 108.195 68.1827 109.189 67.0524 110.217C65.9225 111.245 65.5 112.187 65.5 113C65.5 113.813 65.9225 114.755 67.0524 115.783C68.1827 116.811 69.902 117.805 72.1537 118.671C76.6471 120.399 82.9563 121.5 90 121.5C97.0437 121.5 103.353 120.399 107.846 118.671C110.098 117.805 111.817 116.811 112.948 115.783C114.078 114.755 114.5 113.813 114.5 113C114.5 112.187 114.078 111.245 112.948 110.217C111.817 109.189 110.098 108.195 107.846 107.329C103.353 105.601 97.0437 104.5 90 104.5ZM65.2693 119V118.21C66.7499 119.485 68.7491 120.576 71.0768 121.471C75.9935 123.362 82.6843 124.5 90 124.5C97.3157 124.5 104.007 123.362 108.923 121.471C111.251 120.576 113.25 119.485 114.731 118.21V119C114.731 119.114 114.722 119.232 114.704 119.351C114.653 119.695 114.524 120.061 114.298 120.445C114.07 120.832 113.743 121.237 113.295 121.659L113.272 121.68C113.237 121.713 113.201 121.746 113.165 121.778C112.024 122.807 110.287 123.803 108.014 124.669C103.477 126.399 97.1088 127.5 90.0001 127.5C82.8913 127.5 76.5229 126.399 71.9864 124.669C69.713 123.803 67.9766 122.807 66.8349 121.778C66.7861 121.734 66.7385 121.69 66.6923 121.647C66.3734 121.345 66.116 121.052 65.9124 120.767C65.4551 120.128 65.2693 119.535 65.2693 119ZM109.082 127.473C110.512 126.928 111.819 126.31 112.959 125.623C113.25 127.163 113.968 128.532 114.778 129.736C115.466 130.759 116.321 131.795 117.097 132.736C117.466 133.182 117.816 133.607 118.123 133.998C118.986 135.102 119.5 136.489 119.5 138V188C119.5 190.911 116.816 194.042 111.303 196.532C105.928 198.96 98.3979 200.5 90 200.5C81.6021 200.5 74.0718 198.96 68.6971 196.532C63.1835 194.042 60.5 190.911 60.5 188V138C60.5 136.489 61.0139 135.102 61.8773 133.998C62.1837 133.607 62.5343 133.182 62.9027 132.736C63.6786 131.795 64.5338 130.759 65.2221 129.736C66.0315 128.532 66.7504 127.163 67.0406 125.623C68.181 126.31 69.4878 126.928 70.9178 127.473C75.8749 129.363 82.622 130.5 90.0001 130.5C97.3781 130.5 104.125 129.363 109.082 127.473Z" fill="black"/>
<path fill-rule="evenodd" clip-rule="evenodd" d="M68.2602 20.6804C66.397 20.0746 64.9254 18.603 64.3196 16.7398C63.9675 15.6567 63.5056 15 63 15C62.4944 15 62.0325 15.6567 61.6804 16.7398C61.0746 18.603 59.603 20.0746 57.7398 20.6804C56.6567 21.0325 56 21.4944 56 22C56 22.5056 56.6567 22.9675 57.7398 23.3196C59.603 23.9254 61.0746 25.397 61.6804 27.2602C62.0325 28.3433 62.4944 29 63 29C63.5056 29 63.9675 28.3433 64.3196 27.2602C64.9254 25.397 66.397 23.9254 68.2602 23.3196C69.3433 22.9675 70 22.5056 70 22C70 21.4944 69.3433 21.0325 68.2602 20.6804ZM119.495 19.6185C119.495 20.6035 118.696 21.402 117.711 21.402C116.726 21.402 115.928 20.6035 115.928 19.6185C115.928 18.6335 116.726 17.835 117.711 17.835C118.696 17.835 119.495 18.6335 119.495 19.6185ZM44.5879 28.5358C44.5879 30.5058 42.9909 32.1028 41.0209 32.1028C39.0509 32.1028 37.4539 30.5058 37.4539 28.5358C37.4539 26.5658 39.0509 24.9688 41.0209 24.9688C42.9909 24.9688 44.5879 26.5658 44.5879 28.5358ZM97 140.5C97 141.881 95.8807 143 94.5 143C93.1193 143 92 141.881 92 140.5C92 139.119 93.1193 138 94.5 138C95.8807 138 97 139.119 97 140.5ZM44.5875 57.0719C45.5725 57.0719 46.371 56.2734 46.371 55.2884C46.371 54.3034 45.5725 53.5049 44.5875 53.5049C43.6025 53.5049 42.804 54.3034 42.804 55.2884C42.804 56.2734 43.6025 57.0719 44.5875 57.0719ZM87.567 111.784C87.567 112.769 86.7685 113.567 85.7835 113.567C84.7985 113.567 84 112.769 84 111.784C84 110.799 84.7985 110 85.7835 110C86.7685 110 87.567 110.799 87.567 111.784ZM78.7835 98.567C79.7685 98.567 80.567 97.7685 80.567 96.7835C80.567 95.7985 79.7685 95 78.7835 95C77.7985 95 77 95.7985 77 96.7835C77 97.7685 77.7985 98.567 78.7835 98.567ZM72.567 88.7835C72.567 89.7685 71.7685 90.567 70.7835 90.567C69.7985 90.567 69 89.7685 69 88.7835C69 87.7985 69.7985 87 70.7835 87C71.7685 87 72.567 87.7985 72.567 88.7835ZM70 72C71.6569 72 73 70.6569 73 69C73 67.3431 71.6569 66 70 66C68.3431 66 67 67.3431 67 69C67 70.6569 68.3431 72 70 72ZM85 61C85 62.6569 83.6569 64 82 64C80.3431 64 79 62.6569 79 61C79 59.3431 80.3431 58 82 58C83.6569 58 85 59.3431 85 61ZM102 49C103.657 49 105 47.6569 105 46C105 44.3431 103.657 43 102 43C100.343 43 99 44.3431 99 46C99 47.6569 100.343 49 102 49ZM99 73C99 75.2091 97.2091 77 95 77C92.7909 77 91 75.2091 91 73C91 70.7909 92.7909 69 95 69C97.2091 69 99 70.7909 99 73ZM37.4537 53.5055C38.4387 53.5055 39.2372 52.707 39.2372 51.722C39.2372 50.737 38.4387 49.9385 37.4537 49.9385C36.4687 49.9385 35.6702 50.737 35.6702 51.722C35.6702 52.707 36.4687 53.5055 37.4537 53.5055ZM95.567 156.784C95.567 157.769 94.7685 158.567 93.7835 158.567C92.7985 158.567 92 157.769 92 156.784C92 155.799 92.7985 155 93.7835 155C94.7685 155 95.567 155.799 95.567 156.784ZM141.382 56.2063C143.352 56.2063 144.949 54.6093 144.949 52.6393C144.949 50.6693 143.352 49.0723 141.382 49.0723C139.412 49.0723 137.815 50.6693 137.815 52.6393C137.815 54.6093 139.412 56.2063 141.382 56.2063ZM134.516 92.7374C134.797 93.5542 135.446 94.2028 136.263 94.4844C137.326 94.8512 138 95.3941 138 96C138 96.6059 137.326 97.1488 136.263 97.5156C135.446 97.7972 134.797 98.4458 134.516 99.2626C134.149 100.326 133.606 101 133 101C132.394 101 131.851 100.326 131.484 99.2626C131.203 98.4458 130.554 97.7972 129.737 97.5156C128.674 97.1488 128 96.6059 128 96C128 95.3941 128.674 94.8512 129.737 94.4844C130.554 94.2028 131.203 93.5542 131.484 92.7374C131.851 91.6735 132.394 91 133 91C133.606 91 134.149 91.6735 134.516 92.7374ZM54.2626 69.4844C53.4458 69.2028 52.7972 68.5542 52.5156 67.7374C52.1488 66.6735 51.6059 66 51 66C50.3941 66 49.8512 66.6735 49.4844 67.7374C49.2028 68.5542 48.5542 69.2028 47.7374 69.4844C46.6735 69.8512 46 70.3941 46 71C46 71.6059 46.6735 72.1488 47.7374 72.5156C48.5542 72.7972 49.2028 73.4458 49.4844 74.2626C49.8512 75.3265 50.3941 76 51 76C51.6059 76 52.1488 75.3265 52.5156 74.2626C52.7972 73.4458 53.4458 72.7972 54.2626 72.5156C55.3265 72.1488 56 71.6059 56 71C56 70.3941 55.3265 69.8512 54.2626 69.4844Z" fill="black"/>
<path d="M186.375 75.0983C187.516 75.0983 188.448 74.9271 189.171 74.5847C189.932 74.2423 190.598 73.8998 191.169 73.5574C191.74 73.215 192.272 73.0437 192.767 73.0437C193.376 73.0437 193.851 73.215 194.194 73.5574C194.536 73.8618 194.822 74.4705 195.05 75.3837L199.616 92.5624C199.768 93.0951 199.711 93.5517 199.444 93.9322C199.216 94.2746 198.855 94.4839 198.36 94.5599C197.941 94.636 197.542 94.598 197.161 94.4458C196.781 94.2556 196.458 93.8751 196.191 93.3044C194.251 89.2332 192.463 86.1323 190.826 84.0016C189.19 81.8329 187.497 80.349 185.747 79.55C183.997 78.751 181.98 78.3515 179.697 78.3515H164.117V148.779C164.117 149.463 164.345 150.015 164.802 150.434C165.296 150.852 166 151.137 166.913 151.29L173.248 151.975C173.857 152.051 174.276 152.222 174.504 152.488C174.77 152.755 174.903 153.116 174.903 153.573C174.903 153.991 174.751 154.334 174.447 154.6C174.142 154.866 173.648 154.999 172.963 154.999H144.883C144.237 154.999 143.761 154.866 143.457 154.6C143.152 154.334 143 153.991 143 153.573C143 152.774 143.514 152.241 144.541 151.975L148.878 151.29C149.715 151.099 150.343 150.814 150.762 150.434C151.18 150.015 151.39 149.463 151.39 148.779V81.3192C151.39 80.6343 151.18 80.1017 150.762 79.7212C150.343 79.3027 149.715 78.9983 148.878 78.808L144.541 78.1232C143.514 77.8568 143 77.3242 143 76.5251C143 76.0686 143.152 75.7261 143.457 75.4979C143.761 75.2315 144.237 75.0983 144.883 75.0983H186.375ZM159.266 114.763H177.985C180.573 114.763 182.437 114.231 183.578 113.165C184.72 112.1 185.424 110.084 185.69 107.116C185.804 106.583 185.975 106.203 186.204 105.974C186.47 105.708 186.793 105.556 187.174 105.518C188.087 105.442 188.677 105.936 188.943 107.002L193.281 124.123C193.433 124.656 193.414 125.094 193.224 125.436C193.071 125.778 192.786 126.007 192.367 126.121C191.949 126.235 191.549 126.216 191.169 126.064C190.826 125.912 190.484 125.607 190.142 125.151C189.038 123.248 188.011 121.783 187.06 120.756C186.147 119.729 185.119 119.025 183.978 118.644C182.874 118.226 181.486 118.017 179.812 118.017H159.266V114.763Z" fill="black"/>
<path d="M221.592 104.148V148.95C221.592 149.787 221.744 150.415 222.048 150.833C222.391 151.252 222.886 151.537 223.532 151.689L226.5 152.26C227.033 152.374 227.413 152.564 227.642 152.831C227.87 153.059 227.984 153.344 227.984 153.687C227.984 154.067 227.832 154.391 227.527 154.657C227.261 154.885 226.804 154.999 226.158 154.999H205.555C204.984 154.999 204.546 154.885 204.242 154.657C203.976 154.391 203.842 154.067 203.842 153.687C203.842 153.344 203.957 153.059 204.185 152.831C204.413 152.602 204.756 152.431 205.212 152.317L208.351 151.689C208.998 151.537 209.474 151.252 209.778 150.833C210.12 150.415 210.292 149.806 210.292 149.007V111.054C210.292 110.445 210.177 110.007 209.949 109.741C209.759 109.437 209.397 109.266 208.865 109.227L204.813 109.113C204.356 109.037 204.014 108.904 203.785 108.714C203.595 108.524 203.5 108.276 203.5 107.972C203.5 107.591 203.614 107.306 203.842 107.116C204.071 106.888 204.47 106.659 205.041 106.431L216.113 102.95C216.988 102.607 217.673 102.379 218.168 102.265C218.7 102.151 219.157 102.093 219.537 102.093C220.222 102.093 220.736 102.284 221.078 102.664C221.421 103.045 221.592 103.539 221.592 104.148ZM215.029 91.9917C212.784 91.9917 210.957 91.3259 209.55 89.9942C208.18 88.6625 207.495 86.9884 207.495 84.9718C207.495 82.9172 208.199 81.2431 209.607 79.9495C211.015 78.6178 212.822 77.952 215.029 77.952C217.311 77.952 219.157 78.6178 220.565 79.9495C221.972 81.2812 222.676 82.9553 222.676 84.9718C222.676 86.9884 221.972 88.6625 220.565 89.9942C219.157 91.3259 217.311 91.9917 215.029 91.9917Z" fill="black"/>
<path d="M252.165 126.121C252.165 120.794 252.926 116.323 254.448 112.709C255.97 109.094 257.948 106.355 260.383 104.491C262.819 102.626 265.387 101.694 268.088 101.694C271.246 101.694 273.7 102.607 275.451 104.433C277.201 106.222 278.076 108.695 278.076 111.853C278.076 114.288 277.524 116.133 276.421 117.389C275.355 118.644 273.986 119.272 272.312 119.272C270.675 119.272 269.401 118.816 268.488 117.902C267.575 116.951 267.118 115.62 267.118 113.907L267.061 112.081C267.061 110.749 266.776 109.779 266.205 109.17C265.634 108.524 264.664 108.2 263.294 108.2C261.734 108.2 260.212 108.866 258.728 110.198C257.244 111.529 256.008 113.527 255.019 116.19C254.067 118.854 253.592 122.183 253.592 126.178L252.165 126.121ZM253.249 104.262L253.592 119.957V148.893C253.592 149.616 253.782 150.205 254.163 150.662C254.543 151.08 255.152 151.347 255.989 151.461L261.297 152.203C261.867 152.279 262.286 152.45 262.552 152.716C262.857 152.945 263.009 153.268 263.009 153.687C263.009 154.067 262.838 154.391 262.495 154.657C262.191 154.885 261.734 154.999 261.125 154.999H237.612C237.003 154.999 236.546 154.885 236.242 154.657C235.976 154.391 235.842 154.067 235.842 153.687C235.842 153.344 235.957 153.059 236.185 152.831C236.451 152.602 236.832 152.412 237.326 152.26L240.351 151.689C240.998 151.537 241.474 151.252 241.778 150.833C242.12 150.415 242.292 149.825 242.292 149.064V111.054C242.292 110.445 242.177 109.988 241.949 109.684C241.759 109.38 241.397 109.208 240.865 109.17L236.756 109.056C236.299 109.018 235.976 108.904 235.785 108.714C235.595 108.486 235.5 108.219 235.5 107.915C235.5 107.572 235.614 107.287 235.842 107.059C236.071 106.83 236.489 106.621 237.098 106.431L247.999 103.064C249.026 102.683 249.787 102.436 250.282 102.322C250.814 102.208 251.252 102.151 251.594 102.151C252.089 102.151 252.469 102.322 252.736 102.664C253.002 103.007 253.173 103.539 253.249 104.262Z" fill="black"/>
<path d="M329.621 122.868C329.621 124.047 329.259 124.96 328.536 125.607C327.814 126.254 326.748 126.577 325.34 126.577H289.328V124.009H315.981C317.388 124.009 318.092 123.362 318.092 122.069C318.092 116.514 317.027 112.252 314.896 109.285C312.766 106.317 309.969 104.833 306.507 104.833C303.653 104.833 301.18 105.651 299.087 107.287C296.995 108.923 295.378 111.282 294.236 114.364C293.095 117.446 292.524 121.137 292.524 125.436C292.524 133.084 294.274 138.905 297.775 142.9C301.313 146.857 305.917 148.836 311.586 148.836C315.353 148.836 318.606 147.903 321.345 146.039C324.123 144.137 325.968 141.587 326.881 138.391C327.186 137.935 327.452 137.63 327.68 137.478C327.909 137.288 328.156 137.193 328.422 137.193C328.803 137.193 329.069 137.364 329.221 137.707C329.412 138.011 329.488 138.391 329.45 138.848C329.183 142.082 328.061 145.031 326.082 147.694C324.142 150.319 321.555 152.412 318.321 153.972C315.086 155.494 311.434 156.255 307.363 156.255C302.34 156.255 297.927 155.171 294.122 153.002C290.317 150.833 287.349 147.789 285.219 143.87C283.088 139.913 282.023 135.29 282.023 130.002C282.023 124.561 283.069 119.71 285.162 115.448C287.292 111.187 290.298 107.839 294.179 105.404C298.06 102.931 302.645 101.694 307.933 101.694C312.347 101.694 316.171 102.607 319.405 104.433C322.639 106.222 325.15 108.714 326.938 111.91C328.727 115.068 329.621 118.72 329.621 122.868Z" fill="black"/>
<path d="M354.835 148.95C354.835 149.673 355.007 150.262 355.349 150.719C355.729 151.176 356.3 151.461 357.061 151.575L363.168 152.26C363.777 152.298 364.214 152.45 364.481 152.716C364.747 152.945 364.88 153.268 364.88 153.687C364.88 154.562 364.29 154.999 363.111 154.999H337.885C337.39 154.999 336.991 154.885 336.686 154.657C336.382 154.429 336.23 154.124 336.23 153.744C336.23 153.363 336.363 153.059 336.629 152.831C336.896 152.564 337.295 152.374 337.828 152.26L341.252 151.632C342.051 151.442 342.641 151.137 343.021 150.719C343.402 150.3 343.592 149.749 343.592 149.064V109.912C343.592 109.304 343.44 108.809 343.136 108.428C342.869 108.01 342.356 107.687 341.595 107.458L337.029 106.488C336.23 106.222 335.678 105.955 335.374 105.689C335.107 105.423 334.974 105.118 334.974 104.776C334.974 104.433 335.107 104.148 335.374 103.92C335.64 103.691 336.04 103.577 336.572 103.577H345.59L343.649 105.004V103.463C343.649 102.208 343.383 100.99 342.85 99.8106C342.317 98.6311 341.671 97.4136 340.91 96.158C340.187 94.9024 339.559 93.5327 339.026 92.0488C338.494 90.5268 338.227 88.8147 338.227 86.9123C338.227 82.5748 339.673 79.0934 342.565 76.4681C345.456 73.8047 349.337 72.473 354.208 72.473C357.327 72.473 359.953 72.9867 362.083 74.014C364.252 75.0413 365.888 76.411 366.992 78.1232C368.095 79.8353 368.647 81.6997 368.647 83.7162C368.647 85.6567 368.152 87.1406 367.163 88.1679C366.212 89.1952 364.975 89.7088 363.453 89.7088C361.817 89.7088 360.485 89.1761 359.458 88.1108C358.469 87.0454 357.974 85.5996 357.974 83.7733V80.4061C357.974 78.6558 357.518 77.3242 356.605 76.411C355.691 75.4598 354.341 74.9842 352.552 74.9842C350.27 74.9842 348.481 75.7261 347.188 77.21C345.894 78.6939 345.247 80.7485 345.247 83.3738C345.247 85.124 345.552 86.7411 346.16 88.2249C346.769 89.7088 347.511 91.0976 348.386 92.3912C349.299 93.6468 350.212 94.8834 351.126 96.1009C352.039 97.2804 352.8 98.4789 353.409 99.6964C354.017 100.914 354.322 102.151 354.322 103.406V105.29L353.123 103.577H365.28C365.85 103.577 366.269 103.691 366.535 103.92C366.839 104.11 366.992 104.395 366.992 104.776C366.992 105.385 366.706 105.879 366.136 106.26C365.565 106.64 364.671 106.83 363.453 106.83H354.835V148.95ZM390.562 72.9867V148.95C390.562 149.787 390.715 150.415 391.019 150.833C391.362 151.252 391.856 151.537 392.503 151.689L395.471 152.26C395.965 152.374 396.327 152.564 396.555 152.831C396.821 153.059 396.955 153.344 396.955 153.687C396.955 154.067 396.802 154.391 396.498 154.657C396.194 154.885 395.737 154.999 395.128 154.999H374.525C373.916 154.999 373.46 154.885 373.155 154.657C372.889 154.391 372.756 154.067 372.756 153.687C372.756 153.344 372.87 153.059 373.098 152.831C373.365 152.602 373.764 152.412 374.297 152.26L377.265 151.689C377.95 151.537 378.444 151.252 378.749 150.833C379.053 150.415 379.205 149.806 379.205 149.007V79.8353C379.205 79.2266 379.091 78.789 378.863 78.5227C378.672 78.2183 378.33 78.0471 377.835 78.009L373.726 77.8949C373.27 77.8568 372.946 77.7427 372.756 77.5524C372.566 77.3242 372.471 77.0578 372.471 76.7534C372.471 76.411 372.585 76.1256 372.813 75.8974C373.041 75.6691 373.441 75.4598 374.012 75.2696L385.026 71.7311C385.94 71.4267 386.644 71.2174 387.138 71.1033C387.671 70.9511 388.108 70.875 388.451 70.875C389.174 70.875 389.706 71.0652 390.049 71.4457C390.391 71.8262 390.562 72.3399 390.562 72.9867Z" fill="black"/>
<path d="M432.687 147.18L426.866 159.793L406.035 110.94C405.312 109.151 404.494 107.896 403.58 107.173C402.705 106.45 401.469 105.936 399.871 105.632C399.3 105.48 398.901 105.29 398.672 105.061C398.482 104.833 398.387 104.548 398.387 104.205C398.387 103.787 398.539 103.463 398.843 103.235C399.186 103.007 399.623 102.892 400.156 102.892H423.099C423.67 102.892 424.107 103.007 424.412 103.235C424.716 103.463 424.868 103.787 424.868 104.205C424.868 104.586 424.754 104.89 424.526 105.118C424.298 105.347 423.898 105.518 423.327 105.632L420.131 106.031C418.648 106.298 417.772 106.83 417.506 107.629C417.24 108.39 417.468 109.665 418.191 111.453L432.687 147.18ZM422.757 167.612L428.064 154.257L429.263 151.632L444.729 112.595C445.567 110.464 445.814 108.942 445.471 108.029C445.129 107.116 444.102 106.507 442.39 106.203L439.536 105.689C438.965 105.575 438.547 105.404 438.28 105.175C438.052 104.909 437.938 104.586 437.938 104.205C437.938 103.787 438.09 103.463 438.394 103.235C438.737 103.007 439.174 102.892 439.707 102.892H455.174C455.744 102.892 456.182 103.007 456.486 103.235C456.829 103.463 457 103.787 457 104.205C457 104.548 456.886 104.833 456.658 105.061C456.429 105.29 456.03 105.48 455.459 105.632C453.595 106.05 452.187 106.678 451.236 107.515C450.284 108.352 449.409 109.779 448.61 111.796L426.409 167.441C424.887 171.284 423.423 174.309 422.015 176.516C420.645 178.76 419.142 180.339 417.506 181.253C415.908 182.166 413.949 182.622 411.628 182.622C408.279 182.622 405.616 181.69 403.638 179.826C401.659 177.999 400.67 175.774 400.67 173.148C400.67 171.284 401.107 169.819 401.982 168.754C402.896 167.726 404.094 167.213 405.578 167.213C406.948 167.213 408.032 167.669 408.831 168.583C409.63 169.496 410.22 170.713 410.6 172.235L411.057 174.176C411.285 175.431 411.704 176.401 412.312 177.086C412.921 177.809 413.682 178.171 414.595 178.171C415.509 178.171 416.365 177.847 417.164 177.2C418.001 176.554 418.876 175.45 419.789 173.89C420.702 172.368 421.691 170.276 422.757 167.612Z" fill="black"/>
<path d="M149 191H152.993V183.566H157.212C162.302 183.566 165.036 180.516 165.036 176.283C165.036 172.083 162.335 169 157.266 169H149V191ZM152.993 180.29V172.33H156.652C159.644 172.33 160.968 173.941 160.968 176.283C160.968 178.625 159.644 180.29 156.674 180.29H152.993Z" fill="black"/>
<path d="M169.717 191H183.417V187.659H173.709V169H169.717V191Z" fill="black"/>
<path d="M191.754 191L193.573 185.575H201.86L203.69 191H207.952L200.181 169H195.252L187.492 191H191.754ZM194.649 182.374L197.63 173.512H197.803L200.784 182.374H194.649Z" fill="black"/>
<path d="M208.311 169L216.329 182.793V191H220.311V182.793L228.329 169H223.82L218.428 178.732H218.212L212.82 169H208.311Z" fill="black"/>
<path d="M240.13 172.341H246.943V191H250.904V172.341H257.716V169H240.13V172.341Z" fill="black"/>
<path d="M262.319 191H266.311V181.654H276.525V191H280.529V169H276.525V178.313H266.311V169H262.319V191Z" fill="black"/>
<path d="M286.084 191H300.505V187.659H290.076V181.654H299.677V178.313H290.076V172.341H300.419V169H286.084V191Z" fill="black"/>
<path d="M305.705 191H309.698V182.943H313.766L318.093 191H322.548L317.78 182.277C320.374 181.235 321.741 179.022 321.741 176.036C321.741 171.836 319.029 169 313.971 169H305.705V191ZM309.698 179.635V172.33H313.357C316.338 172.33 317.673 173.694 317.673 176.036C317.673 178.378 316.338 179.635 313.379 179.635H309.698Z" fill="black"/>
<path d="M329.459 191L331.278 185.575H339.565L341.395 191H345.657L337.886 169H332.957L325.197 191H329.459ZM332.354 182.374L335.335 173.512H335.508L338.489 182.374H332.354Z" fill="black"/>
<path d="M349.772 191H353.765V183.566H357.984C363.074 183.566 365.808 180.516 365.808 176.283C365.808 172.083 363.107 169 358.038 169H349.772V191ZM353.765 180.29V172.33H357.424C360.416 172.33 361.74 173.941 361.74 176.283C361.74 178.625 360.416 180.29 357.446 180.29H353.765Z" fill="black"/>
<path d="M368.982 169L377 182.793V191H380.982V182.793L389 169H384.491L379.099 178.732H378.883L373.491 169H368.982Z" fill="black"/>
</svg>
